<?xml version="1.0" encoding="iso-8859-1"?>
<!-- Uploaded to: SVG Repo, www.svgrepo.com, Generator: SVG Repo Mixer Tools -->
<!DOCTYPE svg PUBLIC "-//W3C//DTD SVG 1.1//EN" "http://www.w3.org/Graphics/SVG/1.1/DTD/svg11.dtd">
<svg fill="currentColor" version="1.1" id="Capa_1" xmlns="http://www.w3.org/2000/svg" xmlns:xlink="http://www.w3.org/1999/xlink" 
	 width="800px" height="800px" viewBox="0 0 790.664 790.664"
	 xml:space="preserve">
<g>
	<g>
		<g>
			<g>
				<g>
					<path d="M395.561,0c-0.076,0-0.152,0-0.216,0c-0.089,0-0.152,0-0.242,0C226.237,0,89.332,136.918,89.332,305.797
						c0,139.766,177.244,365.471,261.848,465.255c10.755,12.7,26.633,19.908,43.275,19.604c0.305,0,0.584-0.025,0.89-0.051
						c0.292,0.025,0.572,0.051,0.878,0.051c16.641,0.292,32.506-6.903,43.274-19.604c84.592-99.784,261.835-325.502,261.835-465.255
						C701.332,136.918,564.452,0,395.561,0z M415.228,531.922v-26.545c0-10.856-9.014-19.654-20.125-19.654
						c-10.844,0-19.654,8.811-19.654,19.654v26.545C265.94,522.45,178.5,434.998,169.042,325.477h26.506
						c10.857,0,19.692-8.81,19.692-19.68s-8.835-19.68-19.692-19.68h-26.506c9.471-109.522,96.898-196.923,206.407-206.394v26.519
						c0,10.895,8.416,19.68,20.125,19.68c11.683,0,19.653-8.785,19.653-19.68V79.723c109.522,9.458,196.937,96.873,206.407,206.394
						h-26.494c-10.856,0-19.691,8.81-19.691,19.68s8.835,19.68,19.691,19.68h26.494C612.164,434.998,524.75,522.45,415.228,531.922z
						"/>
				</g>
			</g>
		</g>
		<g>
			<g>
				<g>
					<path d="M509.1,276.315h-70.963c-9.408-13.691-25.146-22.692-43.034-22.692c-0.254,0-0.534,0.076-0.788,0.076l-64.658-91.012
						c-9.42-13.209-27.879-16.349-41.152-6.941c-13.298,9.446-16.4,27.879-6.967,41.19l64.709,91.076
						c-2.047,5.542-3.318,11.505-3.318,17.785c0,28.858,23.354,52.25,52.187,52.25c17.887,0,33.651-9.026,43.059-22.718h70.938
						c16.285,0,29.507-13.26,29.507-29.532C538.606,289.499,525.385,276.315,509.1,276.315z"/>
				</g>
			</g>
		</g>
	</g>
</g>
</svg>