<?xml version="1.0" encoding="iso-8859-1"?>
<!-- Uploaded to: SVG Repo, www.svgrepo.com, Generator: SVG Repo Mixer Tools -->
<svg height="800px" width="800px" version="1.1" id="Capa_1" xmlns="http://www.w3.org/2000/svg" xmlns:xlink="http://www.w3.org/1999/xlink" 
	 viewBox="0 0 496.109 496.109" xml:space="preserve">
<g>
	<g>
		<path style="fill:#010002;" d="M81.461,132.603c0,23.68,18.727,42.869,41.838,42.869s41.848-19.189,41.848-42.869
			c0-17.95-10.782-33.304-26.043-39.677l2.616-3.542c0,0,10.1-14.657,10.883-15.736c1.789-2.463,4.19-13.776-12.56,1.416
			c-16.736,15.194-45.517-12.88-46.637-9.183c-1.146,3.719,16.508,23.503,16.508,23.503l1.835,2.05
			C94.254,96.579,81.461,113.033,81.461,132.603z M121.622,133.376c-7.493-2.135-12.621-5.089-12.621-10.842
			c0-5.199,4.371-9.271,11.861-10.521v-5.625h6.877v5.199c4.688,0.177,7.858,1.004,10.168,1.949l-2.045,6.697
			c-1.808-0.653-5.042-2.019-10.097-2.019c-4.558,0-6.021,1.649-6.021,3.309c0,1.941,2.444,3.199,8.407,5.093
			c8.331,2.474,11.712,5.728,11.712,11.058c0,5.259-4.425,9.759-12.479,10.956v6.023h-6.868v-5.626
			c-4.708-0.163-9.267-1.231-11.938-2.537l2.114-6.934c2.955,1.364,7.072,2.602,11.646,2.602c3.983,0,6.727-1.296,6.727-3.66
			C129.06,136.279,126.811,134.856,121.622,133.376z"/>
		<path style="fill:#010002;" d="M368.74,83.643c-25.315,0-45.907,20.6-45.907,45.91c-0.001,25.313,20.591,45.919,45.907,45.919
			c25.326,0,45.909-20.599,45.909-45.919S394.065,83.643,368.74,83.643z M368.74,165.351c-19.755,0-35.809-16.055-35.809-35.807
			c0-19.746,16.055-35.793,35.809-35.793c19.739,0,35.811,16.047,35.811,35.793C404.549,149.297,388.479,165.351,368.74,165.351z"/>
		<path style="fill:#010002;" d="M398.087,116.804c-1.366-2.475-4.452-3.4-6.946-2.041l-21.258,11.584l-23.905-11.693
			c-2.549-1.225-5.627-0.189-6.854,2.351c-1.243,2.537-0.19,5.609,2.348,6.838l26.3,12.863c0.708,0.352,1.459,0.525,2.243,0.525
			c0.828,0,1.688-0.212,2.455-0.616l23.568-12.868C398.501,122.395,399.436,119.284,398.087,116.804z"/>
		<path style="fill:#010002;" d="M244.096,102.628c27.891-0.535,50.34-23.295,50.34-51.314S271.987,0.534,244.096,0
			c-27.891,0.535-50.34,23.295-50.34,51.314S216.204,102.094,244.096,102.628z"/>
		<path style="fill:#010002;" d="M374.879,187.238c-14.824-0.008-33.009-0.671-41.242-1.692c-2.491-3.406-6.239-9.061-9.172-13.484
			c-10.415-15.708-22.816-34.312-36.396-47.196c-10.089-9.573-19.177-16.166-30.979-19.367c-0.045-0.008-0.092-0.008-0.142-0.016
			l-12.397,13.016l-0.455-0.458l12.965,85.126l-12.387,16.941h-0.241l-0.337-0.461l-0.337,0.461h-0.241l-12.387-16.941
			l12.965-85.126l-0.455,0.458l-12.397-13.016c-0.05,0.008-0.097,0.008-0.142,0.016c-11.803,3.201-20.891,9.794-30.979,19.367
			c-13.579,12.885-25.98,31.488-36.396,47.196c-2.933,4.424-6.681,10.078-9.172,13.484c-8.233,1.021-26.418,1.685-41.242,1.692
			c-11.009,0.008-19.927,8.938-19.91,19.949c0.007,11.006,8.925,19.915,19.927,19.915c0,0,0.009,0,0.017,0
			c48.434-0.03,56.764-3.945,59.906-5.414c6.297-2.955,10.774-8.424,17.847-18.845v59.162c0,8.518,3.771,18.659,4.645,19.754
			c-0.131,0.998-0.142,190.709-0.142,190.709c0,13.009,9.243,23.653,22.247,23.641c13.016,0,23.561-10.545,23.554-23.563
			l-0.017-163.802l2.71,0.005l2.71-0.005l-0.017,163.802c-0.007,13.018,10.538,23.563,23.554,23.563
			c13.004,0.013,22.247-10.632,22.247-23.641c0,0-0.011-189.711-0.142-190.709c0.873-1.095,4.645-11.236,4.645-19.754v-59.162
			c7.072,10.421,11.55,15.89,17.847,18.845c3.143,1.469,11.473,5.384,59.906,5.414c0.008,0,0.017,0,0.017,0
			c11.002,0,19.92-8.909,19.927-19.915C394.806,196.176,385.888,187.245,374.879,187.238z"/>
	</g>
</g>
</svg>