<svg width="23" height="23" viewBox="0 0 23 23" fill="none" xmlns="http://www.w3.org/2000/svg">
<path d="M21.0833 3.83329V6.70829C21.0833 7.21662 20.8814 7.70414 20.5219 8.06358C20.1625 8.42302 19.675 8.62496 19.1666 8.62496H14.375C13.8666 8.62496 13.3791 8.42302 13.0197 8.06358C12.6602 7.70414 12.4583 7.21662 12.4583 6.70829V3.83329C12.4583 3.32496 12.6602 2.83745 13.0197 2.478C13.3791 2.11856 13.8666 1.91663 14.375 1.91663H19.1666C19.675 1.91663 20.1625 2.11856 20.5219 2.478C20.8814 2.83745 21.0833 3.32496 21.0833 3.83329ZM8.62496 14.375H3.83329C3.32496 14.375 2.83745 14.5769 2.478 14.9363C2.11856 15.2958 1.91663 15.7833 1.91663 16.2916V19.1666C1.91663 19.675 2.11856 20.1625 2.478 20.5219C2.83745 20.8814 3.32496 21.0833 3.83329 21.0833H8.62496C9.13329 21.0833 9.6208 20.8814 9.98025 20.5219C10.3397 20.1625 10.5416 19.675 10.5416 19.1666V16.2916C10.5416 15.7833 10.3397 15.2958 9.98025 14.9363C9.6208 14.5769 9.13329 14.375 8.62496 14.375Z" fill="#4C3D3D"/>
<path d="M10.5416 3.83329V10.5416C10.5416 11.05 10.3397 11.5375 9.98025 11.8969C9.6208 12.2564 9.13329 12.4583 8.62496 12.4583H3.83329C3.32496 12.4583 2.83745 12.2564 2.478 11.8969C2.11856 11.5375 1.91663 11.05 1.91663 10.5416V3.83329C1.91663 3.32496 2.11856 2.83745 2.478 2.478C2.83745 2.11856 3.32496 1.91663 3.83329 1.91663H8.62496C9.13329 1.91663 9.6208 2.11856 9.98025 2.478C10.3397 2.83745 10.5416 3.32496 10.5416 3.83329ZM19.1666 10.5416H14.375C13.8666 10.5416 13.3791 10.7436 13.0197 11.103C12.6602 11.4624 12.4583 11.95 12.4583 12.4583V19.1666C12.4583 19.675 12.6602 20.1625 13.0197 20.5219C13.3791 20.8814 13.8666 21.0833 14.375 21.0833H19.1666C19.675 21.0833 20.1625 20.8814 20.5219 20.5219C20.8814 20.1625 21.0833 19.675 21.0833 19.1666V12.4583C21.0833 11.95 20.8814 11.4624 20.5219 11.103C20.1625 10.7436 19.675 10.5416 19.1666 10.5416Z" fill="#C07F00"/>
</svg>
