<svg width="23" height="23" viewBox="0 0 23 23" fill="none" xmlns="http://www.w3.org/2000/svg">
<path d="M8.74401 18.619C9.47309 18.619 11.4999 18.619 11.4999 18.619C11.4999 18.619 13.5264 18.619 14.2559 18.619C14.9846 18.619 15.3154 17.5587 14.8937 16.8093C14.576 16.2446 14.0555 15.6042 13.2084 15.2406C12.7235 15.58 12.1345 15.7797 11.4999 15.7797C10.8646 15.7797 10.2763 15.58 9.79145 15.2406C8.94404 15.6042 8.42385 16.2446 8.10585 16.8093C7.68443 17.5587 8.01492 18.619 8.74401 18.619Z" fill="#4C3D3D"/>
<path d="M11.5 15.0702C12.745 15.0702 13.7536 14.062 13.7536 12.817V12.2772C13.7536 11.0323 12.745 10.0233 11.5 10.0233C10.255 10.0233 9.24609 11.0323 9.24609 12.2772V12.817C9.24609 14.062 10.255 15.0702 11.5 15.0702Z" fill="#4C3D3D"/>
<path d="M18.1923 2.55554H14.7857V3.2857C14.7857 4.69468 13.6391 5.84126 12.2301 5.84126H10.7698C9.36082 5.84126 8.21424 4.69468 8.21424 3.2857V2.55554H4.80768C3.66464 2.55554 2.73804 3.48215 2.73804 4.62514V20.9304C2.73804 22.0734 3.66464 23 4.80768 23H18.1922C19.3352 23 20.2618 22.0734 20.2618 20.9304V4.62514C20.2619 3.48215 19.3353 2.55554 18.1923 2.55554ZM18.0714 20.8095H4.92852V6.75394H18.0714V20.8095Z" fill="#4C3D3D"/>
<path d="M10.7699 5.11112H12.2302C13.2367 5.11112 14.0556 4.29219 14.0556 3.28572V1.8254C14.0556 0.818926 13.2367 0 12.2302 0H10.7699C9.76338 0 8.94446 0.818926 8.94446 1.8254V3.28572C8.94446 4.29215 9.76338 5.11112 10.7699 5.11112ZM10.4048 1.8254C10.4048 1.62361 10.5681 1.46032 10.7699 1.46032H12.2302C12.432 1.46032 12.5953 1.62361 12.5953 1.8254V2.55556C12.5953 2.75735 12.432 2.92064 12.2302 2.92064H10.7699C10.5681 2.92064 10.4048 2.75735 10.4048 2.55556V1.8254Z" fill="#4C3D3D"/>
</svg>
