<svg width="28" height="28" viewBox="0 0 28 28" fill="none" xmlns="http://www.w3.org/2000/svg">
<path fill-rule="evenodd" clip-rule="evenodd" d="M14 4.66663C11.4216 4.66663 9.33329 6.75496 9.33329 9.33329C9.33329 11.9116 11.4216 14 14 14C16.5783 14 18.6666 11.9116 18.6666 9.33329C18.6666 6.75496 16.5783 4.66663 14 4.66663ZM16.3333 9.33329C16.3333 8.04996 15.2833 6.99996 14 6.99996C12.7166 6.99996 11.6666 8.04996 11.6666 9.33329C11.6666 10.6166 12.7166 11.6666 14 11.6666C15.2833 11.6666 16.3333 10.6166 16.3333 9.33329ZM21 21C20.7666 20.1716 17.15 18.6666 14 18.6666C10.8616 18.6666 7.26829 20.16 6.99996 21H21ZM4.66663 21C4.66663 17.8966 10.885 16.3333 14 16.3333C17.115 16.3333 23.3333 17.8966 23.3333 21V23.3333H4.66663V21Z" fill="#4C3D3D"/>
</svg>
